/* XPM */
static char *_8fde5c061d9443a9ff42e2d9d5b78beFG62xxbNgJHvZmb1[] = {
/* columns rows colors chars-per-pixel */
"32 32 44 1 ",
"  c #A96E63",
". c #AE7264",
"X c #AF7768",
"o c #B27666",
"O c #B47867",
"+ c #B17668",
"@ c #B67A68",
"# c #BB7E6C",
"$ c #BC816D",
"% c #C1856E",
"& c #C28770",
"* c #C68B72",
"= c #C98E74",
"- c #CD9276",
"; c #CE9378",
": c #D09375",
"> c #D29679",
", c #D69B7B",
"< c #D79B7C",
"1 c #D59B7E",
"2 c #D69C7C",
"3 c #D79D7C",
"4 c #D89E7D",
"5 c #DC9F7F",
"6 c #DBA07F",
"7 c #DCA17F",
"8 c #D69E81",
"9 c #DA9F80",
"0 c #DBA081",
"q c #DBA183",
"w c #DDA382",
"e c #DDA383",
"r c #DFA582",
"t c #DFA584",
"y c #DDA588",
"u c #E1A683",
"i c #E0A685",
"p c #E3A886",
"a c #E5AA87",
"s c #E3A988",
"d c #E5AA88",
"f c #E4AA89",
"g c #E7AD8B",
"h c #E9AF8B",
/* pixels */
"od4i4ig=#620044w.@@@@@@ =7i60,i,",
"op2w9wi=#6400440Orwawwp$=w0001i,",
"oi1w00w=#w064140ow4p40t$=w000061",
"oi4s96w=#7004149o04ww0u$=w646w01",
"oi,0526*#70042w1@0w00ii$*44w4i91",
"oi,0024*$ww204w,@wsw>w7$=7wd6dw4",
"oi,0026*#ww>ww21@06w2r7$@&&*&*%%",
"oi,0t9w*$ww,wt,1@0402r7$O%$#$$$$",
"ou20t6w*$ww,wt11@wpw>07$-ur9wwa4",
"+704t6w*$ww,wt11@wpw1w0$=w0206i,",
"+6000ww=$044wt,1@060wdp$=w0106i,",
"+60090w=#41i4w11@044i0i$=w0266i,",
"+70090w=#w1p4w11@044w>i$=wr46,t,",
"+70400w=#a4t4w11@04402p$=wt00,w1",
"+6w,044*$i,w6440o04409d$=wt90,01",
"+6w,w04*$r,02140@2w4w1i$=wi90,w1",
"+702794*$64292w0@1w9w>i$=6wwww01",
"+7106ww=$w22d4gwO1w6w>i$*44i4i61",
"+7106tw-@>--1:1>o14224d$*44i4wi1",
"+7206tw; @@@@@Oo.212,rg$*44i46i1",
"+6106tw=$r0i4049O46,w9g$*44i46i1",
"+u4220w=$iwt1w00otr,w2w$*44i46i1",
"og622rw=$u0w4p00oww,w44$*44i46i1",
"oi422iw*$u0w40r0@22,wi4$*460t6i1",
"+722,iw*$dw0s120@121ws4$=wr9ti01",
"+7222iw*#g4i41ww@121wpu$=wr9ti01",
"+700t6w*#g4i20dw@22,wsg#=wr9wi01",
"oar4d44*$72ii440oww090i$*w012w01",
"+p,9d44*$62ip240oww024s$*w022ww1",
"+a4pgpw=$620w440oww0w2g$*4266001",
".-=;--=#$6266440oirrg9h$*42w6w01",
" $$$$$$X$0200880o---;->@*88d08y1"
};
