/* XPM */
static char * 11_xpm[] = {
"32 32 147 2",
"  	c #938694",
". 	c #908491",
"+ 	c #787679",
"@ 	c #2E273D",
"# 	c #7D8285",
"$ 	c #90A9B4",
"% 	c #928693",
"& 	c #7C7A7C",
"* 	c #291F39",
"= 	c #281E38",
"- 	c #7C8284",
"; 	c #90A8B3",
"> 	c #938996",
", 	c #767676",
"' 	c #7A787A",
") 	c #908290",
"! 	c #4A3142",
"~ 	c #95ADB8",
"{ 	c #938794",
"] 	c #462538",
"^ 	c #95ADB9",
"/ 	c #938795",
"( 	c #462437",
"_ 	c #95ACB8",
": 	c #787879",
"< 	c #727071",
"[ 	c #49303F",
"} 	c #978998",
"| 	c #757474",
"1 	c #442939",
"2 	c #442839",
"3 	c #978897",
"4 	c #777677",
"5 	c #747373",
"6 	c #605958",
"7 	c #364B4B",
"8 	c #757575",
"9 	c #635B59",
"0 	c #2F4747",
"a 	c #304647",
"b 	c #605A58",
"c 	c #625857",
"d 	c #4A2D3E",
"e 	c #988998",
"f 	c #605656",
"g 	c #442438",
"h 	c #26243B",
"i 	c #767776",
"j 	c #635B5A",
"k 	c #201D38",
"l 	c #777777",
"m 	c #767677",
"n 	c #978997",
"o 	c #79787A",
"p 	c #334245",
"q 	c #422438",
"r 	c #1F1D38",
"s 	c #201D37",
"t 	c #462537",
"u 	c #2E4747",
"v 	c #201D39",
"w 	c #452538",
"x 	c #462438",
"y 	c #201C39",
"z 	c #452438",
"A 	c #271E38",
"B 	c #96ABB8",
"C 	c #767675",
"D 	c #95B1BD",
"E 	c #201E37",
"F 	c #797779",
"G 	c #353344",
"H 	c #6D6D6E",
"I 	c #625B59",
"J 	c #958896",
"K 	c #563D4D",
"L 	c #6F6D6E",
"M 	c #4E3744",
"N 	c #655D5C",
"O 	c #394A4A",
"P 	c #6E706F",
"Q 	c #304747",
"R 	c #645D5B",
"S 	c #492C3C",
"T 	c #432D3B",
"U 	c #334446",
"V 	c #472438",
"W 	c #462439",
"X 	c #241E38",
"Y 	c #978A98",
"Z 	c #958895",
"` 	c #747475",
" .	c #211F39",
"..	c #94B2BD",
"+.	c #93B0BB",
"@.	c #978D9B",
"#.	c #968796",
"$.	c #47283B",
"%.	c #94B0BC",
"&.	c #78787A",
"*.	c #747574",
"=.	c #47273A",
"-.	c #635958",
";.	c #625A59",
">.	c #304848",
",.	c #988997",
"'.	c #625958",
").	c #615857",
"!.	c #221F39",
"~.	c #757676",
"{.	c #968997",
"].	c #665F5D",
"^.	c #2F4746",
"/.	c #2F4647",
"(.	c #787778",
"_.	c #96B1BE",
":.	c #978999",
"<.	c #635C5A",
"[.	c #988999",
"}.	c #767575",
"|.	c #314647",
"1.	c #645C5A",
"2.	c #67615F",
"3.	c #4A303D",
"4.	c #22253A",
"5.	c #7B797B",
"6.	c #948794",
"7.	c #777676",
"8.	c #655F5D",
"9.	c #4A2F3D",
"0.	c #66605E",
"a.	c #4E414A",
"b.	c #405151",
"c.	c #3B4C4C",
"d.	c #415151",
"e.	c #4D3240",
"f.	c #3B4B4B",
"g.	c #281E39",
"h.	c #3A3947",
"i.	c #5B4352",
"j.	c #513C48",
"k.	c #415252",
"l.	c #3B3948",
"m.	c #5C4352",
"n.	c #4C3441",
"o.	c #3D484A",
"p.	c #343442",
"  . + @ # $             % & * # $                 & = - ; >     ",
", ' ) ! ~ , , , , , , , , { ] ^ , , , , , , , , , / ( _ : , , , ",
", , < [ } , , , , , , , , | 1 } , , , , , , , , , | 2 3 4 , , , ",
", 5 6 7 } , , , , , , , 8 9 0 } , , , , , , , , , 9 a } 4 , , , ",
", 5 b 7 } , , , , , , , 9 9 0 } , , , , , , , , , 9 ] 3 4 , , , ",
", 5 c d } , , , , , , 9 , 9 ] } , , , , , , , , , 9 0 e 4 , , , ",
"9 f g h 4 e i j 9 9 9 9 9 ] k l } , , , 9 m 9 9 9 ] k m n o , , ",
"p q r k s t u k k v u u w r k r x ] ] y k k ] ] u r k k z ] A k ",
"B } } } } } } C k , D } } } } } , } } , E , D } } } } } } F G H ",
", , , , , , , } ] D , , , , , 9 I , , } ] D , , , , , , , J K L ",
", , , , , , , , ] } , , , , 9 } , , , , ] } , , , , , , , , M L ",
", , , , , , , I 0 } , , , 9 } , , , , 9 0 } , , , , , , , N O P ",
", , , , , , , I Q } , , , , , , , , , 9 ] } , , , , , , , N O P ",
", , , , , , , I Q } , , , , , , , , , 9 ] } , 9 , , , , , N O P ",
"  5 R C 9 9 9 ] k , } , , , 9 9 9 9 9 ] s , } , 9 9 9 9 9 S A H ",
"T U g v v y ] k k k ] V ] v v v ] ] 0 k k k ] 0 0 v v y W X k k ",
"Y } Z `  ., ..} } } } } } , k 4 ..} } } } } } } } , r m +.@.} } ",
", , F #.$.D , , , , , , , } ] D , , , , , , , , , } ( %.&., , , ",
", , , *.=.} , , , , , , , , ] } , , , , , , , , , , x 3 4 , , , ",
", , | -.=.} , , , , , , , 9 0 } , , , , , , , , , 9 ] 3 4 , , , ",
", , | ;.>.} , , , , , , , 9 ] } , , , , , , , , , 9 0 n 4 , , , ",
", , | ;.>.} , , , , , , , 9 0 } , , , , , , , , , 9 0 ,.4 , , , ",
", , | '.=.} , , , , , , , 9 0 } , , , , , , , , , 9 ] 3 4 N 5 , ",
"9 9 ).W !., } , 9 9 9 9 9 ] k , } , , , 9 9 9 9 9 ] k ~.{.F ].9 ",
"] ] g k k r ] k r r 0 0 ] k k r ^.] ] y k r 0 0 x k k r /.2 ] = ",
"e e J (.e e e i k , _.e } e e e e e e i s , _.} e :.e e } e e e ",
", , | <., , , } ] D , , , , , , , , , [.] D , , , , , , , , , , ",
", , , }.j , , , ] :., , , , , , , , , , ] :., , , , , , , , , , ",
", , , , 8 , , <.|.} , , , , , , , , , 1.a } , , , , , , , , , , ",
", , , , , , , I Q } , , , , , , , , , 9 0 } , , , , , , , , , , ",
", 5 2.C ].].].3.4.5.6., , , ].7.8.].].9.4.5.{ , , , ]., 0.].].].",
"a.b.c.d.e.e.f.g.k h.i.j.k.k.f.k.e.e.f.* k l.m.k.k.k.f.k.f.n.o.p."};
