/* XPM */
static char *_831899cd9074fe3ef360bd681f92bf957LZKdcNcD9aw44i[] = {
/* columns rows colors chars-per-pixel */
"32 32 84 1 ",
"  c #3B4B5A",
". c #3D4A5A",
"X c #3C4D59",
"o c #3D4D59",
"O c #3E4C59",
"+ c #3E4C5B",
"@ c #3F4D5B",
"# c #3C4F5A",
"$ c #3D4F5B",
"% c #3E4E5B",
"& c #3F4E5B",
"* c #3E4B5E",
"= c #3B4D5C",
"- c #3B4D5D",
"; c #3B4D5E",
": c #3B4D5F",
"> c #3C4C5C",
", c #3D4C5C",
"< c #3E4C5C",
"1 c #3E4D5D",
"2 c #3C4E5D",
"3 c #3E4E5C",
"4 c #3F4E5D",
"5 c #3B4C60",
"6 c #404B5C",
"7 c #444F5F",
"8 c #42505D",
"9 c #42515D",
"0 c #42505F",
"q c #42515F",
"w c #44515D",
"e c #44505F",
"r c #445260",
"t c #55616D",
"y c #56626E",
"u c #57626E",
"i c #5F6C7B",
"p c #606C7B",
"a c #606C7C",
"s c #677280",
"d c #788794",
"f c #788795",
"g c #798896",
"h c #7C8C9B",
"j c #7B8D9C",
"k c #7B8F9D",
"l c #7B8D9E",
"z c #7A8E9E",
"x c #7B8F9F",
"c c #7D8D9C",
"v c #7E8C9C",
"b c #7F8C9C",
"n c #7C8E9D",
"m c #7D8C9E",
"M c #7E8D9F",
"N c #7C8E9F",
"B c #7E8F9F",
"V c #818E9D",
"C c #9AA9B8",
"Z c #A2B1BF",
"A c #A3B5C6",
"S c #A2B6C6",
"D c #A7BACB",
"F c #A8BAC9",
"G c #A9BAC9",
"H c #A9B9CB",
"J c #AAB8CB",
"K c #AABBCA",
"L c #A9BCCA",
"P c #A9BBCC",
"I c #AABACC",
"U c #ABBFCF",
"Y c #ACBECF",
"T c #ADBECF",
"R c #ACBFCF",
"E c #ADBFD0",
"W c #AFC0CF",
"Q c #AEC0D1",
"! c #AEC2D2",
"~ c #AEC2D4",
"^ c #B0C1D2",
"/ c #B1C3D4",
"( c #B2C3D4",
") c #B0C4D4",
/* pixels */
";;;;;;;;;;;;;;;;;;2;;;;;;;;;;;5;",
"PKKPPPPLLKKPPPPLLKysDKKDDDKKKKKD",
"NNNNNNNNNNNNNNNNNNypNNNNNNNNNNNN",
"NNNNNNNNNNNNNNNNNNyiNNNNNNNNNNNN",
"NNNNNNNNNNNNNNNNNkyiNNNNNNNNNNNN",
"NNNNNNNNNNNNNNNNNkyiNNNNNNNNNNNN",
"NNNNNNNNNNNNNNNNNNyiNNNNNNNNNNNN",
"NNNNNNNNNNNNNNNNNNyaNNNNNNNNNNNN",
";%%222222222222222222222222%2222",
"!!!~!~!!!!!!!!!!!!!!!!!^^^^rZ)((",
"NNNNNNNNNNNNNNNNNNNNNNNNNNN0fNNN",
"NNNNNNNNNNNNNNNNNNNNNNNNNNN0fNNN",
"NNNNNNNNNNNNNNNNNNNNNNNNNNN0fNNN",
"NNNNNNNNNNNNNNNNNNNNNNNNNNN0fNNN",
"NNNNNNNNNNNNNNNNNNNNNNNNNNN0fNNN",
"kkkkkkkkkkkkkkkkkkkkkkkkkkNefkkk",
"2%22.222222222222222222222      ",
"YUUE2WUUUUUYYYYUUUUYYYYUUUYYYYYU",
"NNNN%NNNNNNNNNNNNNNNNNNNNNNNNNNN",
"NNNk2NNNNNNNNNNNNNNNNNNNNNNNNNNN",
"NNNk%NNNNNNNNNNNNNNNNNNNNNNNNNNN",
"NNNk%NNNNNNNNNNNNNNNNNNNNNNNNNNN",
"NNNk%NNNNNNNNNNNNNNNNNNNNNNNNNNN",
"NNNN%VhkNNNNNNNNhNNNNNNNNNNNNNNN",
"2%2%2*222262222222222222222%2226",
"AAAAAAAAAAAAAAAAAAAAAAAAAAAeCAAA",
"NNNNNNNNNNNNNNNNNNNNNNNNNNN0gNNN",
"NNNNNNNNNNNNNNNNNNNNNNNNNNN7gNNN",
"NNNNNNNNNNNNNNNNNNNNNNNNNNN0gNNN",
"NNNNNNNNNNNNNNNNNNNNNNNNNNN0gNNN",
"NNNNNNNNNNNNNNNNNNNNNNNNNNN0gNNN",
"kkkkkkkkkkkkkkkkkkkkkkkkkkN0fNkk"
};
