/* XPM */
static char * collect_xpm[] = {
"32 32 290 2",
"  	c #DADADA",
". 	c #D7D7D7",
"+ 	c #D9D9D9",
"@ 	c #D8D7D6",
"# 	c #C6C2C0",
"$ 	c #B3AFAC",
"% 	c #C5C5C5",
"& 	c #D8D7D7",
"* 	c #C4BFBB",
"= 	c #8F7E73",
"- 	c #5A4334",
"; 	c #8B8785",
"> 	c #C5C4C3",
", 	c #BEBEBE",
"' 	c #CECCCB",
") 	c #988E88",
"! 	c #54351A",
"~ 	c #371C0F",
"{ 	c #473028",
"] 	c #8B817F",
"^ 	c #C8C5C5",
"/ 	c #D8D8D8",
"( 	c #A3A3A3",
"_ 	c #CECECE",
": 	c #989594",
"< 	c #43312A",
"[ 	c #3D1E0E",
"} 	c #4E260F",
"| 	c #633C2B",
"1 	c #8C7C77",
"2 	c #BEBAB8",
"3 	c #D7D5D5",
"4 	c #C8C7C7",
"5 	c #878180",
"6 	c #5A3E34",
"7 	c #5E2E10",
"8 	c #623011",
"9 	c #672E13",
"0 	c #876767",
"a 	c #B4AFB2",
"b 	c #D1D2D2",
"c 	c #B6B6B6",
"d 	c #C4C2C1",
"e 	c #8E807B",
"f 	c #613011",
"g 	c #6B2E14",
"h 	c #79282A",
"i 	c #662145",
"j 	c #66556C",
"k 	c #ACA1A6",
"l 	c #D0CDCD",
"m 	c #B9B4B3",
"n 	c #7A554E",
"o 	c #7B282B",
"p 	c #6E2247",
"q 	c #3F2054",
"r 	c #5E2149",
"s 	c #7F484E",
"t 	c #A49795",
"u 	c #CDCCCC",
"v 	c #D4D4D4",
"w 	c #D1D0CF",
"x 	c #AA9A9B",
"y 	c #70334E",
"z 	c #422154",
"A 	c #5F2047",
"B 	c #73252B",
"C 	c #6E2E13",
"D 	c #6D4B3E",
"E 	c #9F9593",
"F 	c #C7C7C9",
"G 	c #887F8B",
"H 	c #642147",
"I 	c #77262A",
"J 	c #6A2D12",
"K 	c #6E4D40",
"L 	c #9E9492",
"M 	c #C9C7C7",
"N 	c #D5D4D4",
"O 	c #D3D3D3",
"P 	c #BFB8BA",
"Q 	c #916C6E",
"R 	c #6A2E12",
"S 	c #6D483B",
"T 	c #8F807C",
"U 	c #AAA19F",
"V 	c #B7B3B1",
"W 	c #CDCCCB",
"X 	c #D6D6D6",
"Y 	c #B9B5B3",
"Z 	c #7A625B",
"` 	c #6B493D",
" .	c #9D9492",
"..	c #CACAC9",
"+.	c #B4AEAD",
"@.	c #7C635C",
"#.	c #71453B",
"$.	c #A69090",
"%.	c #D1CCCC",
"&.	c #B0A9A8",
"*.	c #623112",
"=.	c #643315",
"-.	c #653315",
";.	c #6A290C",
">.	c #7E3F40",
",.	c #8F646C",
"'.	c #A99497",
").	c #CBC9C8",
"!.	c #8F7F7A",
"~.	c #6A3C21",
"{.	c #743721",
"].	c #864748",
"^.	c #9B828A",
"/.	c #8D8791",
"(.	c #704E60",
"_.	c #A79396",
":.	c #D0CCCC",
"<.	c #D0CFCF",
"[.	c #A19794",
"}.	c #743825",
"|.	c #8C4C4E",
"1.	c #9C7F87",
"2.	c #AEABA8",
"3.	c #B6B199",
"4.	c #A69B7C",
"5.	c #978170",
"6.	c #A59497",
"7.	c #CFCCCC",
"8.	c #999999",
"9.	c #CDCDCD",
"0.	c #B2B2B1",
"a.	c #AFA8A7",
"b.	c #643823",
"c.	c #622F10",
"d.	c #692911",
"e.	c #7F3E44",
"f.	c #997C85",
"g.	c #A6A4A1",
"h.	c #AFA98A",
"i.	c #B4AC78",
"j.	c #C5BC84",
"k.	c #CABF8C",
"l.	c #9A8572",
"m.	c #A79699",
"n.	c #D2CFCF",
"o.	c #C9C7C6",
"p.	c #91817D",
"q.	c #70372B",
"r.	c #814B4F",
"s.	c #968088",
"t.	c #AFACA5",
"u.	c #BCB595",
"v.	c #968C62",
"w.	c #7E6B52",
"x.	c #988968",
"y.	c #D8CE91",
"z.	c #D2C590",
"A.	c #8C6F6A",
"B.	c #B09EA1",
"C.	c #D4D1D1",
"D.	c #C7C2C2",
"E.	c #9D7E7F",
"F.	c #926D76",
"G.	c #A9A8A6",
"H.	c #C9C19E",
"I.	c #BBB07B",
"J.	c #735A48",
"K.	c #BC967F",
"L.	c #CDAC8A",
"M.	c #DBCA93",
"N.	c #E4DBA2",
"O.	c #A4987C",
"P.	c #846472",
"Q.	c #B5A4A6",
"R.	c #D5D2D2",
"S.	c #D9D8D8",
"T.	c #C8C0C0",
"U.	c #A1878B",
"V.	c #A09183",
"W.	c #BFB584",
"X.	c #A29765",
"Y.	c #755749",
"Z.	c #D2A68A",
"`.	c #EDC3A2",
" +	c #E0CCAF",
".+	c #C9C4A9",
"++	c #ADA89A",
"@+	c #8B838F",
"#+	c #896B77",
"$+	c #B4A3A5",
"%+	c #D4D2D2",
"&+	c #C4BABA",
"*+	c #A0817D",
"=+	c #A89571",
"-+	c #AFA470",
";+	c #A39362",
">+	c #C7AB82",
",+	c #D1B6A8",
"'+	c #C3BABB",
")+	c #ABABB4",
"!+	c #AAAAB2",
"~+	c #ADADB4",
"{+	c #908994",
"]+	c #886B76",
"^+	c #B4A4A6",
"/+	c #D3D1D1",
"(+	c #C3B9BA",
"_+	c #A2847F",
":+	c #B8A579",
"<+	c #DDD18F",
"[+	c #DAD1A3",
"}+	c #ADADB3",
"|+	c #A6A6AE",
"1+	c #BAB9BF",
"2+	c #ACACB3",
"3+	c #B4B2B9",
"4+	c #886D79",
"5+	c #875256",
"6+	c #AEA7A5",
"7+	c #C2B9BA",
"8+	c #A38982",
"9+	c #AB9C76",
"0+	c #B6AF98",
"a+	c #BABABE",
"b+	c #A9A8B0",
"c+	c #B6B6BC",
"d+	c #AEADB4",
"e+	c #928F9B",
"f+	c #B4A4AA",
"g+	c #874B52",
"h+	c #732916",
"i+	c #755D54",
"j+	c #B1ACAB",
"k+	c #D5D5D5",
"l+	c #C1B9BA",
"m+	c #866C77",
"n+	c #716475",
"o+	c #A4A3AB",
"p+	c #ACABB3",
"q+	c #B2B2BA",
"r+	c #BEBCC2",
"s+	c #826977",
"t+	c #844349",
"u+	c #742811",
"v+	c #603010",
"w+	c #7B645D",
"x+	c #B9B5B4",
"y+	c #C1B6B7",
"z+	c #9B838A",
"A+	c #A198A1",
"B+	c #A7A7B0",
"C+	c #A8A5AE",
"D+	c #94808A",
"E+	c #83454B",
"F+	c #752911",
"G+	c #603011",
"H+	c #633B28",
"I+	c #9F9694",
"J+	c #BCAFB0",
"K+	c #8E707A",
"L+	c #8D7E8A",
"M+	c #917982",
"N+	c #82444A",
"O+	c #722A10",
"P+	c #7E6962",
"Q+	c #BCB9B8",
"R+	c #D6D4D4",
"S+	c #BFB1B2",
"T+	c #977077",
"U+	c #7E363D",
"V+	c #6E2A10",
"W+	c #6F4F44",
"X+	c #A9A19F",
"Y+	c #ADADAD",
"Z+	c #BCADAD",
"`+	c #85615C",
" @	c #664131",
".@	c #A19895",
"+@	c #CECECD",
"@@	c #B3AEAD",
"#@	c #623117",
"$@	c #796159",
"%@	c #A7A09E",
"&@	c #D4D4D3",
"*@	c #B4AFAD",
"=@	c #8C7D78",
"-@	c #968A86",
";@	c #B7B2B1",
">@	c #C9C8C8",
",@	c #CFCFCF",
"        . +                                                     ",
"    @ # $ %                                                     ",
"  & * = - ; >       ,                                           ",
"  ' ) ! ~ { ] ^ /                     (                         ",
"  _ : < [ } | 1 2 3                                             ",
"    4 5 6 7 8 9 0 a b                     ,   c                 ",
"    / d e f g h i j k l                       c                 ",
"      . m n o p q r s t u   v                 v                 ",
"        w x y z A B C D E u                                     ",
"          F G H I J 8 8 K L M N +                               ",
"          O P Q R 8 8 8 8 S T U V W                             ",
"            X Y Z 8 8 8 8 8 8 f `  ...        v                 ",
"              v +.@.8 8 8 8 8 8 8 #.$.%.      v                 ",
"                N &.K 8 8 *.=.-.;.>.,.'.%.              v v     ",
"                  ).!.8 8 =.~.{.].^./.(._.:.                    ",
"                  <.[.8 8 =.}.|.1.2.3.4.5.6.7.                  ",
"            8.9.v 0.a.b.c.d.e.f.g.h.i.j.k.l.m.n.                ",
"                    o.p.q.r.s.t.u.v.w.x.y.z.A.B.C.              ",
"                    + D.E.F.G.H.I.J.K.L.M.N.O.P.Q.R.            ",
"                      S.T.U.V.W.X.Y.Z.`. +.+++@+#+$+%+          ",
"                        & &+*+=+-+;+>+,+'+)+!+~+{+]+^+/+        ",
"                          & (+_+:+<+[+}+|+1+2+~+3+4+5+6+O       ",
"                            & 7+8+9+0+a+b+c+d+e+f+g+h+i+j+k+    ",
"                              & l+m+n+o+p+q+r+s+t+u+v+f w+x+    ",
"                                & y+z+A+B+C+D+E+F+G+8 8 H+I+    ",
"            ,                     3 J+K+L+M+N+O+f 8 8 8 P+Q+    ",
"              9.                    R+S+T+U+V+f 8 8 8 W+X+k+    ",
"              Y+              v c     R+Z+`+f 8 8 8  @.@+@      ",
"                                        v @@Z 8 #@$@%@u         ",
"                                          &@*@=@-@;@&@          ",
"                                            k+>@,@              ",
"                                                                "};
