/* XPM */
static char * C_xpm[] = {
"32 32 655 2",
"  	c #B27666",
". 	c #E5AA88",
"+ 	c #D89E7D",
"@ 	c #E0A685",
"# 	c #E7AD8B",
"$ 	c #C98E74",
"% 	c #BB7E6C",
"& 	c #DBA07F",
"* 	c #D69C7C",
"= 	c #DBA081",
"- 	c #DDA382",
"; 	c #AE7264",
"> 	c #B67A68",
", 	c #A96E63",
"' 	c #DCA17F",
") 	c #D69B7B",
"! 	c #E3A886",
"~ 	c #DA9F80",
"{ 	c #B47C6E",
"] 	c #D7A589",
"^ 	c #D19F83",
"/ 	c #D6A283",
"( 	c #CF9C80",
"_ 	c #D2A085",
": 	c #DCA78A",
"< 	c #BB826F",
"[ 	c #D59B7E",
"} 	c #B08980",
"| 	c #B8A59D",
"1 	c #9F8E86",
"2 	c #957F74",
"3 	c #947F75",
"4 	c #A4938B",
"5 	c #BDA295",
"6 	c #B88676",
"7 	c #E3A988",
"8 	c #C69279",
"9 	c #B48973",
"0 	c #B38973",
"a 	c #988074",
"b 	c #989385",
"c 	c #8B836D",
"d 	c #827556",
"e 	c #83775A",
"f 	c #8F8672",
"g 	c #9E8F7D",
"h 	c #9F7C6E",
"i 	c #B69183",
"j 	c #D0A996",
"k 	c #D8A285",
"l 	c #DC9F7F",
"m 	c #C68B72",
"n 	c #DCA180",
"o 	c #DCA68B",
"p 	c #DBA88E",
"q 	c #D09C80",
"r 	c #AB846E",
"s 	c #796C5E",
"t 	c #726859",
"u 	c #7E724F",
"v 	c #91813E",
"w 	c #A38A2B",
"x 	c #AB8D1C",
"y 	c #AA8C1F",
"z 	c #A1882C",
"A 	c #917E40",
"B 	c #7F7259",
"C 	c #959189",
"D 	c #B6A9A2",
"E 	c #CEA590",
"F 	c #DCA587",
"G 	c #D89E7E",
"H 	c #BC816D",
"I 	c #DDA585",
"J 	c #E2C2B3",
"K 	c #D6C6BF",
"L 	c #AC968E",
"M 	c #8C755A",
"N 	c #82723A",
"O 	c #877535",
"P 	c #9D872B",
"Q 	c #BC9F16",
"R 	c #D9B305",
"S 	c #E7BC00",
"T 	c #E4BA00",
"U 	c #D4AE04",
"V 	c #B9991B",
"W 	c #968037",
"X 	c #8B7F5D",
"Y 	c #9A9482",
"Z 	c #BEAFA4",
"` 	c #D8B3A2",
" .	c #DAA181",
"..	c #BD8879",
"+.	c #DAB4A1",
"@.	c #DACAC2",
"#.	c #C6C6C4",
"$.	c #858381",
"%.	c #8E793E",
"&.	c #B79912",
"*.	c #BD9D01",
"=.	c #C5A508",
"-.	c #D5B20B",
";.	c #E9BF0A",
">.	c #F7C907",
",.	c #FCCD04",
"'.	c #F1C503",
").	c #DDB506",
"!.	c #C1A00F",
"~.	c #9F861F",
"{.	c #8C815B",
"].	c #A7A49B",
"^.	c #C1B3AD",
"/.	c #CDACA1",
"(.	c #CA9884",
"_.	c #C1856E",
":.	c #DFA584",
"<.	c #BF968B",
"[.	c #CBBFBA",
"}.	c #BFBCB7",
"|.	c #A6A399",
"1.	c #796F57",
"2.	c #B19112",
"3.	c #E8BF08",
"4.	c #ECC205",
"5.	c #E2BA0A",
"6.	c #D3AF0F",
"7.	c #D3AD10",
"8.	c #E3B80C",
"9.	c #F9CA04",
"0.	c #FCCC02",
"a.	c #F5C804",
"b.	c #E9C00B",
"c.	c #C5A40E",
"d.	c #9A863D",
"e.	c #938B74",
"f.	c #B8B5AF",
"g.	c #D8CECC",
"h.	c #C9A49A",
"i.	c #E1A683",
"j.	c #B28679",
"k.	c #9B918D",
"l.	c #82827F",
"m.	c #867C61",
"n.	c #AB8E31",
"o.	c #D9B100",
"p.	c #F8CA03",
"q.	c #F6CA07",
"r.	c #D9B40D",
"s.	c #AC8F11",
"t.	c #9A7E0E",
"u.	c #BF9C0A",
"v.	c #F5C905",
"w.	c #FFD003",
"x.	c #FDCD02",
"y.	c #F9CB05",
"z.	c #E6BD03",
"A.	c #C5A420",
"B.	c #958247",
"C.	c #9F9D92",
"D.	c #C6BEBB",
"E.	c #D7B09C",
"F.	c #E5AA87",
"G.	c #B17668",
"H.	c #DCA282",
"I.	c #B9836D",
"J.	c #9A715C",
"K.	c #846D46",
"L.	c #7C692D",
"M.	c #A08318",
"N.	c #D8AF09",
"O.	c #F2C401",
"P.	c #F4C602",
"Q.	c #DCB407",
"R.	c #B6950D",
"S.	c #886C11",
"T.	c #78590D",
"U.	c #A07F08",
"V.	c #D8B106",
"W.	c #F3C603",
"X.	c #FECE01",
"Y.	c #F9CB02",
"Z.	c #E1B800",
"`.	c #9B8113",
" +	c #898374",
".+	c #ADA5A0",
"++	c #CEA48F",
"@+	c #D49D7E",
"#+	c #977060",
"$+	c #846E45",
"%+	c #AF932A",
"&+	c #C8A513",
"*+	c #DEB406",
"=+	c #F3C502",
"-+	c #F9CA01",
";+	c #E7BA01",
">+	c #A48403",
",+	c #7B5C09",
"'+	c #8D620F",
")+	c #9A680E",
"!+	c #996D0A",
"~+	c #9C7C04",
"{+	c #D9B002",
"]+	c #FFCF01",
"^+	c #ECBF00",
"/+	c #A5870A",
"(+	c #897F6B",
"_+	c #A69C97",
":+	c #C99E89",
"<+	c #DEA585",
"[+	c #D69D7F",
"}+	c #CB957B",
"|+	c #A98169",
"1+	c #947747",
"2+	c #B0922C",
"3+	c #DAB414",
"4+	c #EDC102",
"5+	c #F6C801",
"6+	c #FCCD01",
"7+	c #FDCD01",
"8+	c #EFC101",
"9+	c #C39C03",
"0+	c #987609",
"a+	c #7F5C0F",
"b+	c #7B540B",
"c+	c #957005",
"d+	c #BE9902",
"e+	c #E7BC01",
"f+	c #F6C800",
"g+	c #D5AD04",
"h+	c #AD934A",
"i+	c #8D7F6B",
"j+	c #977966",
"k+	c #B99989",
"l+	c #D1B5A9",
"m+	c #D59E81",
"n+	c #CD997F",
"o+	c #C79378",
"p+	c #AE8267",
"q+	c #887149",
"r+	c #B3942A",
"s+	c #DEB405",
"t+	c #F6C802",
"u+	c #FBCC01",
"v+	c #EDBF03",
"w+	c #CDA508",
"x+	c #9F810D",
"y+	c #8C7107",
"z+	c #B49101",
"A+	c #ECC000",
"B+	c #FECF01",
"C+	c #FDCE01",
"D+	c #F8C901",
"E+	c #CBA409",
"F+	c #745F1B",
"G+	c #4A4031",
"H+	c #8C8B8C",
"I+	c #CBC7C5",
"J+	c #C29680",
"K+	c #968178",
"L+	c #786158",
"M+	c #836734",
"N+	c #AE8E22",
"O+	c #DBB311",
"P+	c #F5C700",
"Q+	c #FBCB01",
"R+	c #FCCC01",
"S+	c #FACB02",
"T+	c #F3C503",
"U+	c #EABE04",
"V+	c #E5BA03",
"W+	c #EBBF01",
"X+	c #FDCF01",
"Y+	c #CEA600",
"Z+	c #715908",
"`+	c #3F3525",
" @	c #898989",
".@	c #C9C5C4",
"+@	c #AD7669",
"@@	c #BE917A",
"#@	c #977D70",
"$@	c #5C5A5A",
"%@	c #2F3136",
"&@	c #514100",
"*@	c #8D7200",
"=@	c #B18F00",
"-@	c #C19C01",
";@	c #C09B01",
">@	c #BF9B01",
",@	c #BF9B02",
"'@	c #BE9A02",
")@	c #CAA403",
"!@	c #EEC303",
"~@	c #FFD002",
"{@	c #EEC304",
"]@	c #D9B204",
"^@	c #C59F02",
"/@	c #C39E04",
"(@	c #D3AC0B",
"_@	c #EAC212",
":@	c #E2BA10",
"<@	c #CDA709",
"[@	c #C29D04",
"}@	c #9C7D00",
"|@	c #55420B",
"1@	c #332D22",
"2@	c #888888",
"3@	c #A9756A",
"4@	c #977F74",
"5@	c #5C5B59",
"6@	c #3D3827",
"7@	c #493F0E",
"8@	c #594B0A",
"9@	c #625107",
"0@	c #655406",
"a@	c #675607",
"b@	c #685707",
"c@	c #695807",
"d@	c #695808",
"e@	c #645508",
"f@	c #8D7508",
"g@	c #E0B906",
"h@	c #FED003",
"i@	c #DEB807",
"j@	c #B29608",
"k@	c #7A6607",
"l@	c #74610B",
"m@	c #A38913",
"n@	c #D7B41B",
"o@	c #C7A619",
"p@	c #957D11",
"q@	c #75620B",
"r@	c #534504",
"s@	c #2F270D",
"t@	c #2A2823",
"u@	c #A8756A",
"v@	c #927D74",
"w@	c #646259",
"x@	c #685D27",
"y@	c #9A851A",
"z@	c #B49A1B",
"A@	c #BA9D16",
"B@	c #B79B15",
"C@	c #B49A16",
"D@	c #B79D17",
"E@	c #B99E16",
"F@	c #BA9F15",
"G@	c #B99E14",
"H@	c #C6A811",
"I@	c #EEC307",
"J@	c #FCCD02",
"K@	c #EFC606",
"L@	c #D9B60C",
"M@	c #BEA112",
"N@	c #BA9E13",
"O@	c #CCAB12",
"P@	c #E4BD13",
"Q@	c #DEB913",
"R@	c #CCAB13",
"S@	c #BEA114",
"T@	c #98810F",
"U@	c #544511",
"V@	c #342E23",
"W@	c #937E74",
"X@	c #6C685A",
"Y@	c #81712C",
"Z@	c #BFA21D",
"`@	c #E0BC1A",
" #	c #E6BF14",
".#	c #D2B014",
"+#	c #C9AB16",
"@#	c #DBBB18",
"##	c #E5C116",
"$#	c #E9C313",
"%#	c #E9C213",
"&#	c #E9C212",
"*#	c #EDC50E",
"=#	c #FBCE04",
"-#	c #F0C70A",
";#	c #DBB811",
">#	c #CBAB11",
",#	c #C6A60F",
"'#	c #CEAB0B",
")#	c #D6B20C",
"!#	c #DEB90F",
"~#	c #E6BF11",
"{#	c #C09F0D",
"]#	c #695510",
"^#	c #3B3223",
"/#	c #6F6A5A",
"(#	c #8B772A",
"_#	c #CEAB15",
":#	c #F0C50F",
"<#	c #F1C407",
"[#	c #C6A208",
"}#	c #B2960D",
"|#	c #D9B711",
"1#	c #EDC50D",
"2#	c #F7CA07",
"3#	c #FACC04",
"4#	c #FCCD03",
"5#	c #F1C404",
"6#	c #D5AF08",
"7#	c #AE910A",
"8#	c #8F780A",
"9#	c #927B0A",
"0#	c #AB8E09",
"a#	c #CDA908",
"b#	c #EDC205",
"c#	c #CDA600",
"d#	c #70580B",
"e#	c #3D3323",
"f#	c #706A5A",
"g#	c #8D782A",
"h#	c #D0AD16",
"i#	c #E9C011",
"j#	c #DBB30B",
"k#	c #A78707",
"l#	c #8F740C",
"m#	c #BA9B14",
"n#	c #D1AD12",
"o#	c #E3BB0A",
"p#	c #FFCF00",
"q#	c #F8C904",
"r#	c #E2B807",
"s#	c #B7940A",
"t#	c #866C08",
"u#	c #5E4A07",
"v#	c #604C08",
"w#	c #80670A",
"x#	c #AE8D0A",
"y#	c #DDB406",
"z#	c #C5A000",
"A#	c #6F580A",
"B#	c #3F3422",
"C#	c #937D74",
"D#	c #8C772A",
"E#	c #D0AC18",
"F#	c #DBB513",
"G#	c #B7970C",
"H#	c #906E08",
"I#	c #7E5B0B",
"J#	c #927513",
"K#	c #A18512",
"L#	c #C29F0B",
"M#	c #FFCE01",
"N#	c #FBCC02",
"O#	c #EBBF06",
"P#	c #C8A309",
"Q#	c #93740A",
"R#	c #93630A",
"S#	c #9F640B",
"T#	c #9C640F",
"U#	c #8C6011",
"V#	c #91710F",
"W#	c #BD9A08",
"X#	c #AC8C01",
"Y#	c #6A540A",
"Z#	c #413622",
"`#	c #957F75",
" $	c #8C782A",
".$	c #D0AD17",
"+$	c #D2AD11",
"@$	c #9D7F06",
"#$	c #926905",
"$$	c #8E6208",
"%$	c #7F600A",
"&$	c #7E6509",
"*$	c #AA8906",
"=$	c #ECC002",
"-$	c #F9CA02",
";$	c #DBB307",
">$	c #AA8B08",
",$	c #7C5A07",
"'$	c #C07A0C",
")$	c #EA9712",
"!$	c #E49518",
"~$	c #B77A18",
"{$	c #836012",
"]$	c #947606",
"^$	c #8B6F00",
"/$	c #654F0A",
"($	c #433722",
"_$	c #A97568",
":$	c #988277",
"<$	c #D0AD15",
"[$	c #E4BC0E",
"}$	c #D1A903",
"|$	c #A98303",
"1$	c #987406",
"2$	c #B59309",
"3$	c #C6A106",
"4$	c #DAB103",
"5$	c #F6C701",
"6$	c #DEB506",
"7$	c #B08F06",
"8$	c #7C5B05",
"9$	c #AC6D09",
"0$	c #D08510",
"a$	c #CA8415",
"b$	c #A66F15",
"c$	c #836010",
"d$	c #9A7B05",
"e$	c #907300",
"f$	c #66500A",
"g$	c #D1AD14",
"h$	c #F4C80C",
"i$	c #F8C903",
"j$	c #CFA701",
"k$	c #BE9A04",
"l$	c #E3BA09",
"m$	c #F6C905",
"n$	c #ECC004",
"o$	c #CCA504",
"p$	c #9E7B03",
"q$	c #936806",
"r$	c #97640A",
"s$	c #95650D",
"t$	c #90670D",
"u$	c #9C790A",
"v$	c #BF9A03",
"w$	c #AC8B00",
"x$	c #6B540A",
"y$	c #CFAB13",
"z$	c #F1C60C",
"A$	c #F9CA03",
"B$	c #EFC202",
"C$	c #F6C803",
"D$	c #F8C902",
"E$	c #E8BC01",
"F$	c #C8A101",
"G$	c #9D7D02",
"H$	c #7B5E04",
"I$	c #7D6004",
"J$	c #987704",
"K$	c #BE9803",
"L$	c #E4B901",
"M$	c #C8A100",
"N$	c #6F570A",
"O$	c #3E3322",
"P$	c #937D73",
"Q$	c #676358",
"R$	c #736224",
"S$	c #A98B0C",
"T$	c #C6A107",
"U$	c #D1A800",
"V$	c #D0A700",
"W$	c #CFA700",
"X$	c #C9A100",
"Y$	c #B69200",
"Z$	c #977900",
"`$	c #7E6500",
" %	c #806600",
".%	c #947500",
"+%	c #AF8B00",
"@%	c #C8A000",
"#%	c #AB8900",
"$%	c #5C4808",
"%%	c #352E21",
"&%	c #888887",
"*%	c #A9766B",
"=%	c #958077",
"-%	c #62605C",
";%	c #4D4324",
">%	c #6B570D",
",%	c #7E650F",
"'%	c #83680B",
")%	c #85680B",
"!%	c #84680B",
"~%	c #84670B",
"{%	c #82660B",
"]%	c #80650C",
"^%	c #7E640C",
"/%	c #7E630B",
"(%	c #80640B",
"_%	c #83670B",
":%	c #6C5508",
"<%	c #3E3214",
"[%	c #33302B",
"}%	c #8B8B8B",
"|%	c #CBC7C6",
"1%	c #AC796D",
"2%	c #A39086",
"3%	c #6E6E6D",
"4%	c #423F38",
"5%	c #473E2B",
"6%	c #50442E",
"7%	c #52452D",
"8%	c #53452D",
"9%	c #54462D",
"0%	c #55472D",
"a%	c #56482D",
"b%	c #483D2C",
"c%	c #3C3833",
"d%	c #484847",
"e%	c #959595",
"f%	c #D0CCCB",
"g%	c #B2837A",
"h%	c #BFB1AA",
"i%	c #A3A3A3",
"j%	c #878787",
"k%	c #888787",
"l%	c #8A8A8A",
"m%	c #949595",
"n%	c #B4ACA9",
"o%	c #D3BDB5",
"p%	c #B88B82",
"q%	c #DCCAC2",
"r%	c #CDC8C6",
"s%	c #C2BBB8",
"t%	c #C0B9B5",
"u%	c #C0B9B6",
"v%	c #BFB8B5",
"w%	c #BDB6B4",
"x%	c #BBB5B4",
"y%	c #BEB8B5",
"z%	c #BAB5B4",
"A%	c #C1B9B6",
"B%	c #BCB6B4",
"C%	c #BFB8B4",
"D%	c #C1BAB7",
"E%	c #C8C1BF",
"F%	c #D1BBB1",
"G%	c #D4A38C",
"H%	c #B17B6F",
"I%	c #D1A897",
"J%	c #CCA79A",
"K%	c #CBA495",
"L%	c #CAA393",
"M%	c #CAA394",
"N%	c #C7A193",
"O%	c #BD988F",
"P%	c #BE9A8F",
"Q%	c #D4AC98",
"R%	c #D0AA97",
"S%	c #D2AB97",
"T%	c #D4AC9A",
"U%	c #B7948C",
"V%	c #D8B09C",
"W%	c #D7AF9A",
"X%	c #DDB49F",
"Y%	c #D3AB99",
"Z%	c #DEB69F",
"`%	c #C59F92",
" &	c #D5AE9A",
".&	c #D5AC99",
"+&	c #D8B19E",
"@&	c #D9AB95",
"#&	c #D59C80",
"$&	c #AF7768",
"%&	c #D69E81",
"&&	c #CD9276",
"*&	c #CE9378",
"=&	c #D29679",
"-&	c #DDA588",
"  . + @ + @ # $ % & * = = + + - ; > > > > > > , $ ' @ & = ) @ ) ",
"  ! * - ~ - @ $ % & + = = + + = { ] ^ / ( _ : < $ - = = = [ @ ) ",
"  @ [ - = = - $ % - = & + [ + = } | 1 2 3 4 5 6 $ - = = = = & [ ",
"  @ + 7 ~ & - $ % ' = = + 8 9 0 a b c d e f g h i j k + & - = [ ",
"  @ ) = l * & m % n o p q r s t u v w x y z A B C D E F G @ ~ [ ",
"  @ ) = = * + m H I J K L M N O P Q R S T U V W X Y Z `  .. - + ",
"  @ ) = = * & m ..+.@.#.$.%.&.*.=.-.;.>.,.'.).!.~.{.].^./.(._._.",
"  @ ) = :.~ - m <.[.}.|.1.2.3.4.5.6.7.8.9.0.a.b.c.d.e.f.g.h.H H ",
"  i.* = :.& - m j.k.l.m.n.o.p.q.r.s.t.u.v.w.x.y.z.A.B.C.D.E.F.+ ",
"G.' = + :.& H.I.J.K.L.M.N.O.P.Q.R.S.T.U.V.W.X.X.Y.Z.`. +.+++@ ) ",
"G.& = = = - @+#+$+%+&+*+=+-+;+>+,+'+)+!+~+{+X.X.]+^+/+(+_+:+<+[+",
"G.& = = ~ }+|+1+2+3+4+5+6+7+8+9+0+a+b+c+d+e+X.X.]+f+g+h+i+j+k+l+",
"G.' m+n+o+p+q+r+s+t+X.X.]+]+u+v+w+x+y+z+A+6+X.B+]+C+D+E+F+G+H+I+",
"G.& J+K+L+M+N+O+P+Q+6+6+6+6+R+S+T+U+V+W+D+R+7+X+C+7+Q+Y+Z+`+ @.@",
"+@@@#@$@%@&@*@=@-@;@>@,@,@'@)@!@~@C+{@]@^@/@(@_@:@<@[@}@|@1@2@.@",
"3@4@5@6@7@8@9@0@a@b@c@c@d@e@f@g@h@Y.i@j@k@l@m@n@o@p@q@r@s@t@2@.@",
"u@v@w@x@y@z@A@B@C@D@E@F@F@G@H@I@]+J@K@L@M@N@O@P@Q@R@S@T@U@V@2@.@",
"u@W@X@Y@Z@`@ #.#+#@###$#%#&#*#y.X.X.=#-#;#>#,#'#)#!#~#{#]#^#2@.@",
"u@W@/#(#_#:#<#[#}#|#1#2#3#4#4#C+X.X.x.5#6#7#8#9#0#a#b#c#d#e#2@.@",
"u@W@f#g#h#i#j#k#l#m#n#o#p.p#X.X.X.7+q#r#s#t#u#v#w#x#y#z#A#B#2@.@",
"u@C#f#D#E#F#G#H#I#J#K#L#5#]+X.X.M#N#O#P#Q#R#S#T#U#V#W#X#Y#Z#2@.@",
"u@`#f# $.$+$@$#$$$%$&$*$=$]+X.X.]+-$;$>$,$'$)$!$~${$]$^$/$($2@.@",
"_$:$f# $<$[$}$|$1$2$3$4$5$]+X.X.]+S+6$7$8$9$0$a$b$c$d$e$f$($2@.@",
"_$`#f#g#g$h$i$j$k$l$m$X.]+]+]+]+]+6+n$o$p$q$r$s$t$u$v$w$x$Z#2@.@",
"u@W@f#(#y$z$A$O.B$C$S+R+R+R+R+R+R+u+D$E$F$G$H$I$J$K$L$M$N$O$2@.@",
"u@P$Q$R$S$T$Y+U$U$V$W$W$W$W$W$W$W$W$V$X$Y$Z$`$ %.%+%@%#%$%%%&%.@",
"*%=%-%;%>%,%'%)%!%!%!%!%!%!%!%!%!%!%!%~%{%]%^%/%(%{%_%:%<%[%}%|%",
"1%2%3%4%5%6%7%8%8%8%8%8%8%8%8%8%8%8%8%8%9%0%a%a%0%9%8%b%c%d%e%f%",
"g%h%i%}%j%2@2@2@2@2@2@2@2@2@2@2@2@2@2@2@2@2@2@2@2@2@2@k%l%m%n%o%",
"p%q%r%s%t%u%v%w%x%v%y%v%v%v%v%v%z%v%v%v%v%y%A%x%B%v%y%C%D%E%F%G%",
"H%I%J%K%L%M%N%O%P%Q%R%Q%Q%S%S%T%U%V%W%W%X%Y%Z%P%`%S%R% &.&+&@&#&",
", H H H H H H $&H = * = = %&%&=   &&&&&&*&&&=&> m %&%&. = %&-&[ "};
