/* XPM */
static char *_6b10c3f73f04077a09bd24848f1751a9qB9D5Mrtr5a5u2Q[] = {
/* columns rows colors chars-per-pixel */
"32 32 200 2 ",
"   c #060602",
".  c #090905",
"X  c #0D0C04",
"o  c #120D02",
"O  c #100F02",
"+  c #110F02",
"@  c #110F03",
"#  c #100F05",
"$  c #101003",
"%  c #101005",
"&  c #1E1C05",
"*  c #12100F",
"=  c #322303",
"-  c #362900",
";  c #333331",
":  c #323232",
">  c #333232",
",  c #343231",
"<  c #343232",
"1  c #353232",
"2  c #383431",
"3  c #393431",
"4  c #3A3431",
"5  c #482A05",
"6  c #4A2D08",
"7  c #4F3305",
"8  c #4A3B01",
"9  c #403711",
"0  c #40391A",
"q  c #423C21",
"w  c #413F3E",
"e  c #5D4006",
"r  c #5E4A07",
"t  c #58470A",
"y  c #5E500F",
"u  c #654E00",
"i  c #654F00",
"p  c #644A07",
"a  c #675203",
"s  c #6F5806",
"d  c #68550A",
"f  c #735403",
"g  c #715C02",
"h  c #745D02",
"j  c #7C5A0E",
"k  c #6B5812",
"l  c #745016",
"z  c #7B6402",
"x  c #7F6602",
"c  c #7E6508",
"v  c #736215",
"b  c #7A6913",
"n  c #7D6913",
"m  c #665D25",
"M  c #796822",
"N  c #474545",
"B  c gray29",
"V  c #4E4C4B",
"C  c #585959",
"Z  c #7C7246",
"A  c #63625B",
"S  c #6A665F",
"D  c #606060",
"F  c #6D6B6F",
"G  c gray44",
"H  c #717070",
"J  c #707071",
"K  c #727170",
"L  c #7E7E7E",
"P  c #886B00",
"I  c #896B00",
"U  c #886B01",
"Y  c #896B02",
"T  c #896C02",
"R  c #84670E",
"E  c #92610F",
"W  c #9C6708",
"Q  c #8F7300",
"!  c #8A740B",
"~  c #8B760A",
"^  c #95770D",
"/  c #907A0D",
"(  c #9C6611",
")  c #977E13",
"_  c #927C19",
"`  c #A0660A",
"'  c #AA720E",
"]  c #8B7828",
"[  c #827631",
"{  c #97800C",
"}  c #9E820B",
"|  c #9E830B",
" . c #9E8409",
".. c #B89500",
"X. c #BC9701",
"o. c #BD9B00",
"O. c #BC9B0A",
"+. c #A88B19",
"@. c #BD9F14",
"#. c #BEA10A",
"$. c #C4A003",
"%. c #C6A307",
"&. c #CEAE0A",
"*. c #CBA80E",
"=. c #D2AA00",
"-. c #D5AE06",
";. c #D8B207",
":. c #DAB207",
">. c #DCB304",
",. c #C6A510",
"<. c #D7AF12",
"1. c #D7B210",
"2. c #D4B517",
"3. c #D9B713",
"4. c #D9BA16",
"5. c #D0B11A",
"6. c #D5B71C",
"7. c #D9B719",
"8. c #D8B819",
"9. c #D9B819",
"0. c #DBB919",
"q. c #E1B504",
"w. c #E3B903",
"e. c #E1B907",
"r. c #E3BC0D",
"t. c #FDA211",
"y. c #F4A11C",
"u. c #E5BF12",
"i. c #C8AD23",
"p. c #E3BF20",
"a. c #EBC104",
"s. c #ECC108",
"d. c #EEC40B",
"f. c #ECC70A",
"g. c #EDC40C",
"h. c #F1C201",
"j. c #F3C600",
"k. c #F5C700",
"l. c #F2C705",
"z. c #F0C506",
"x. c #FBCD00",
"c. c #FACC01",
"v. c #FBCC02",
"b. c #FDCD00",
"n. c #FECD00",
"m. c #FFCD00",
"M. c #FECD01",
"N. c #FCCE00",
"B. c #FDCE00",
"V. c #FDCF00",
"C. c #FDCE01",
"Z. c #FECE00",
"A. c #FECF00",
"S. c #FFCF00",
"D. c #FECE01",
"F. c #FECF01",
"G. c #FFCF01",
"H. c #FCCD02",
"J. c #FECC02",
"K. c #FDCE02",
"L. c #FDCF02",
"P. c #FDCE03",
"I. c #FECE02",
"U. c #FACF06",
"Y. c #FDCE04",
"T. c #FDCF06",
"R. c #FECE06",
"E. c #F4CB08",
"W. c #FED000",
"Q. c #FBD007",
"!. c #E6C310",
"~. c #EAC211",
"^. c #EBC211",
"/. c #E9C214",
"(. c #E9C117",
"). c #8D8A7D",
"_. c #8B8B8B",
"`. c #A09F9F",
"'. c #A1A0A0",
"]. c #AAABAB",
"[. c #ABACAC",
"{. c #B3B0A5",
"}. c #B3B4B3",
"|. c gray75",
" X c #C0C0C0",
".X c gray80",
"XX c #CECECE",
"oX c gray82",
"OX c gray83",
"+X c #DADADA",
"@X c gray86",
"#X c #E7E7E7",
"$X c #E9EAEA",
"%X c #F4F4F4",
"&X c #F6F6F6",
"*X c #F7F7F6",
"=X c #FEFEFE",
"-X c #FFFFFE",
";X c #FEFFFF",
":X c white",
/* pixels */
":X:X:X:X:X:X:X:X:X:X:X:X:X:X:X:X:X:X:X:X:X:X:X:X:X:X:X:X:X:X:X:X",
":X:X:X:X:X:X:X:X:X:X:X:X:X:X:X:X:X:X:X:X:X:X:X:X:X:X:X:X:X:X:X:X",
":X:X:X:X:X:X:X:X:X:X:X:X:X:X:X:X:X:X:X:X:X:X:X:X:X:X:X:X:X:X:X:X",
":X:X:X:X:X:X:X:X:X:X:X:X:X:X:X:X:X:X:X:X:X:X:X:X:X:X:X:X:X:X:X:X",
":X:X:X:X:X:X:X:X:X:X:X:X:X:X:X:X:X:X:X:X:X:X:X:X:X:X:X:X:X:X:X:X",
":X:X:X:X:X:X:X:X:X:X:X:X:X:X:X:X:X:X:X:X:X:X:X:X:X:X:X:X:X:X:X:X",
":X:X:X:X:X:X:X:X:X:X:X:X:X:X:X:X:X:X:X:X:X:X:X:X:X:X:X:X:X:X:X:X",
":X:X:X:X:X:X:X:X:X:X:X:X:X:X:X:X:X:X:X:X:X:X:X:X:X:X:X:X:X:X:X:X",
":X:X:X:X:X:X:X:X:X:X:X:X:X:X:X:X:X:X:X:X:X:X:X:X:X:X:X:X:X:X:X:X",
":X:X:X:X:X:X:X:X:X:X:X:X:X:X:X:X:X:X%X].G G '.%X:X:X:X:X:X:X:X:X",
":X:X:X:X:X:X:X:X:X:X:X:X:X:X:X:X:XD A [ } } ] S }.:X:X:X:X:X:X:X",
":X:X:X:X:X:X:X:X:X:X:X:X:X:X:X#XF / { &.Y.Y.;.) Z |.:X:X:X:X:X:X",
":X:X:X:X:X:X:X:X:X:X:X:X:X:XXX{.0 l.l.1.<.D.v.g._ ).$X:X:X:X:X:X",
":X:X:X:X:X:X:X:X:X:X:X:X:X:XN q >.D.d.b r Q.D.D.a.v [.:X:X:X:X:X",
":X:X:X:X:X:X:X:X:X:X:X:X:XB @.w.D.h.= E ' a D.D.D.g `.:X:X:X:X:X",
":X:X:X:X:X:X:X:X:X:X:X:XV $.v.D.D.D.q.k 8 j.D.D.D.k.d w OX:X:X:X",
":X:X:X:X:X:X:X:X:X:XL * o.D.D.D.D.D.D.D.v.D.D.W.D.D.u , oX:X:X:X",
":X:X:X:X:X:X:X:X:XG . X + + + $ % & U.D.#.+ y p.n #   ; oX:X:X:X",
":X:X:X:X:X:X:X:X:XG m i.7.5.6.8.8.4.D.D.E.2.3.d.u.8.t , oX:X:X:X",
":X:X:X:X:X:X:X:X:XG M ^.D. .!.Y.D.D.D.D.D.;.~ ~ %.D.u , oX:X:X:X",
":X:X:X:X:X:X:X:X:XG M (.*.e +.,.D.D.D.D.s.^ 5 6 R e.u , oX:X:X:X",
":X:X:X:X:X:X:X:X:XG M (.z W p s D.D.D.D.O.7 t.y.l Q u , oX:X:X:X",
":X:X:X:X:X:X:X:X:XG M ^.D.x r.D.D.D.D.D.-.f ` ( j ..u , oX:X:X:X",
":X:X:X:X:X:X:X:X:XG M ^.D.D.D.D.D.D.D.D.D.=.g h X.D.u , oX:X:X:X",
":X:X:X:X:X:X:X:X:XG 9 c I I I I I I I I I I T I I I - ; oX:X:X:X",
":X:X:X:X:X:X:X:X:X_.; 2 2 2 2 2 2 2 2 2 2 2 2 2 2 2 , C @X:X:X:X",
":X:X:X:X:X:X:X:X:X@X X X X X X X X X X X X X X X X X XXX%X:X:X:X",
":X:X:X:X:X:X:X:X:X:X:X:X:X:X:X:X:X:X:X:X:X:X:X:X:X:X:X:X:X:X:X:X",
":X:X:X:X:X:X:X:X:X:X:X:X:X:X:X:X:X:X:X:X:X:X:X:X:X:X:X:X:X:X:X:X",
":X:X:X:X:X:X:X:X:X:X:X:X:X:X:X:X:X:X:X:X:X:X:X:X:X:X:X:X:X:X:X:X",
":X:X:X:X:X:X:X:X:X:X:X:X:X:X:X:X:X:X:X:X:X:X:X:X:X:X:X:X:X:X:X:X",
":X:X:X:X:X:X:X:X:X:X:X:X:X:X:X:X:X:X:X:X:X:X:X:X:X:X:X:X:X:X:X:X"
};
