/* XPM */
static char * E_xpm[] = {
"32 32 51 1",
" 	c #B27666",
".	c #E5AA88",
"+	c #D89E7D",
"@	c #E0A685",
"#	c #E7AD8B",
"$	c #C98E74",
"%	c #BB7E6C",
"&	c #DBA07F",
"*	c #D69C7C",
"=	c #DBA081",
"-	c #DDA382",
";	c #AE7264",
">	c #B67A68",
",	c #A96E63",
"'	c #DCA17F",
")	c #D69B7B",
"!	c #E3A886",
"~	c #DA9F80",
"{	c #B47867",
"]	c #DFA582",
"^	c #E5AA87",
"/	c #BC816D",
"(	c #D59B7E",
"_	c #DFA584",
":	c #E3A988",
"<	c #E1A683",
"[	c #DC9F7F",
"}	c #C68B72",
"|	c #D29679",
"1	c #C28770",
"2	c #C1856E",
"3	c #000000",
"4	c #0B0B0B",
"5	c #A4A4A4",
"6	c #CD9276",
"7	c #B17668",
"8	c #111111",
"9	c #070707",
"0	c #E2DAD8",
"a	c #C6C6C6",
"b	c #323232",
"c	c #9E9E9E",
"d	c #ADADAD",
"e	c #0D0D0D",
"f	c #737373",
"g	c #434343",
"h	c #E7DEDA",
"i	c #2F2F2F",
"j	c #E3E3E3",
"k	c #DEDEDE",
"l	c #C1C1C1",
" .+@+@#$%&*==++-;>>>>>>,$'@&=)@)",
" !*-~-@$%&+==++={]-^--!/$-===(@)",
" @(-==-$%-=&+(+= -+!+=_/$-====&(",
" @+:~&-$%'==+(+~ =+--=</$-&+&-=(",
" @)=[*&}%'==+*-(>=-==@@/}++-+@~(",
" @)==*+}/--*=+-)>-:-|-'/$'-.&.-+",
" @)==*&}%--|--*(>=&-*]'/>11}1}22",
" @)=_~-}/--)-_33333=*]'/{2/%////",
" <*=_&-}/--)4333333335'/6<]~--^+",
"7'=+_&-}/-83333333333390$-=*=&@)",
"7&===--$a933333333333339b-=(=&@)",
"7&==~=-c333333333333333334=*&&@)",
"7'==~=d3333333333333333333e+&)_)",
"7'=+==933333333333333333333f=)-(",
"7&-)=99333333333333333333334=)=(",
"7&-)g333333333333333333333334)-(",
"7'=*3333333333333333333333339h=(",
"7'(i33333333333333333333333333&(",
"7'(333333333333333333333333333j(",
"7'k3333333333333333333333333333(",
"7&33333333333333333333333333333(",
"7<33333333333333333333333333333(",
" #33333333333333333333333333333i",
" l333333333333333333333333333333",
"78333333333333333333333333333333",
"79333333333333333333333333333333",
"73333333333333333333333333333333",
" 3333333333333333333333333333333",
"73333333333333333333333333333333",
"73333333333333333333333333333333",
";3333333333333333333333333333333",
",3333333333333333333333333333333"};
