/* XPM */
static char *b1c22314d16249b09c80dec953915807KNskIZ5u6UD5vFl5[] = {
/* columns rows colors chars-per-pixel */
"32 32 31 1 ",
"  c black",
". c #010101",
"X c #020202",
"o c gray1",
"O c #040404",
"+ c gray2",
"@ c #060606",
"# c #070707",
"$ c gray3",
"% c #090909",
"& c #0B0B0B",
"* c gray5",
"= c #101010",
"- c #111111",
"; c #2F2F2F",
": c #323232",
"> c #434343",
", c gray45",
"< c gray62",
"1 c #A4A4A4",
"2 c gray68",
"3 c #C1C1C1",
"4 c #C6C6C6",
"5 c gray87",
"6 c gray89",
"7 c #EAEAEA",
"8 c #F3F3F3",
"9 c gray97",
"0 c #FBFBFB",
"q c #FEFEFE",
"w c white",
/* pixels */
"wwwwwwwwwwwwwwwwwwwwwwwwwwwwwwww",
"wwwwwwwwwwwwwwwwwwwwwwwwwwwwwwww",
"wwwwwwwwwwwwwwwwwwwwwwwwwwwwwwww",
"wwwwwwwwwwwwwwwwwwwwwwwwwwwwwwww",
"wwwwwwwwwwwwwwwwwwwwwwwwwwwwwwww",
"wwwwwwwwwwwwwwwwwwwwwwwwwwwwwwww",
"wwwwwwwwwwwwwwwwwwwwwwwwwwwwwwww",
"wwwwwwwwwwwwww     wwwwwwwwwwwww",
"wwwwwwwwwwww&        1wwwwwwwwww",
"wwwwwwwwww-           #7wwwwwwww",
"wwwwwwww4#             #:wwwwwww",
"wwwwwww<                 &wwwwww",
"wwwwww2                   *wwwww",
"wwwwww#                    ,wwww",
"wwww0##                    &8www",
"wwww>                       &ww9",
"wwww                        #7ww",
"www;                          ww",
"www                           6w",
"ww5                            w",
"ww                             w",
"ww                             w",
"ww                             ;",
"w3                              ",
"w-                              ",
"w#                              ",
"w                               ",
"w                               ",
"w                               ",
"w                               ",
"w                               ",
"w                               "
};
