/* XPM */
static char * exit_xpm[] = {
"32 32 342 2",
"  	c #DADADA",
". 	c #BEBEBE",
"+ 	c #A3A3A3",
"@ 	c #B6B6B6",
"# 	c #D4D4D4",
"$ 	c #D2D2D2",
"% 	c #BEC1BD",
"& 	c #B5B5B3",
"* 	c #B7B7B5",
"= 	c #B6B6B4",
"- 	c #B9B9B8",
"; 	c #C9C9C8",
"> 	c #CBCBCB",
", 	c #D3CFCF",
"' 	c #B1999B",
") 	c #976064",
"! 	c #7D494B",
"~ 	c #853D44",
"{ 	c #923D48",
"] 	c #95434D",
"^ 	c #9A414C",
"/ 	c #90424C",
"( 	c #8F4750",
"_ 	c #964952",
": 	c #A3545B",
"< 	c #BB8D90",
"[ 	c #D6D2D2",
"} 	c #D8D7D7",
"| 	c #CCBFC0",
"1 	c #C5A6A8",
"2 	c #BF858A",
"3 	c #B5525C",
"4 	c #B51939",
"5 	c #B61838",
"6 	c #B61939",
"7 	c #B61938",
"8 	c #B51938",
"9 	c #B21937",
"0 	c #A12238",
"a 	c #A01732",
"b 	c #934550",
"c 	c #87696E",
"d 	c #7E8083",
"e 	c #A68C90",
"f 	c #D8D8D8",
"g 	c #947E80",
"h 	c #867F82",
"i 	c #8D7477",
"j 	c #8D6569",
"k 	c #8E5A60",
"l 	c #954F58",
"m 	c #9B434E",
"n 	c #A03D49",
"o 	c #A3253A",
"p 	c #AD1736",
"q 	c #A81634",
"r 	c #97273A",
"s 	c #7F4E55",
"t 	c #6D6A6F",
"u 	c #785A60",
"v 	c #637C7F",
"w 	c #578D8F",
"x 	c #568C8E",
"y 	c #648386",
"z 	c #BBABAC",
"A 	c #B3A1A3",
"B 	c #779FA0",
"C 	c #6BAEAF",
"D 	c #68A9AB",
"E 	c #619D9F",
"F 	c #588E8E",
"G 	c #578B8D",
"H 	c #5A898B",
"I 	c #5C878A",
"J 	c #5F7D7E",
"K 	c #8D162D",
"L 	c #6A7377",
"M 	c #5F8889",
"N 	c #5A898A",
"O 	c #578C8E",
"P 	c #5F8485",
"Q 	c #7A4951",
"R 	c #568A8B",
"S 	c #578C8F",
"T 	c #816E73",
"U 	c #D2CECE",
"V 	c #CFC6C7",
"W 	c #7D7A7E",
"X 	c #639E9F",
"Y 	c #5C9698",
"Z 	c #599192",
"` 	c #588D8F",
" .	c #5B7B7D",
"..	c #88142B",
"+.	c #5A8B8D",
"@.	c #568C8F",
"#.	c #5F8687",
"$.	c #588A8B",
"%.	c #706B6F",
"&.	c #6F646A",
"*.	c #716C71",
"=.	c #87434C",
"-.	c #8F132C",
";.	c #AF8F92",
">.	c #999999",
",.	c #CDCDCD",
"'.	c #B0B0AF",
").	c #8B5C61",
"!.	c #669496",
"~.	c #568D8F",
"{.	c #646E71",
"].	c #841B2F",
"^.	c #588C8E",
"/.	c #568D8E",
"(.	c #5E8689",
"_.	c #59898C",
":.	c #687377",
"<.	c #814D56",
"[.	c #8E132C",
"}.	c #8F132B",
"|.	c #90132B",
"1.	c #91142C",
"2.	c #A26F74",
"3.	c #D3D0D1",
"4.	c #A67A7D",
"5.	c #88595F",
"6.	c #6F7478",
"7.	c #66777B",
"8.	c #567F82",
"9.	c #568789",
"0.	c #568C8D",
"a.	c #578D8E",
"b.	c #568B8E",
"c.	c #725F64",
"d.	c #834D55",
"e.	c #6D8E90",
"f.	c #6B8384",
"g.	c #735F64",
"h.	c #842C3A",
"i.	c #8E132B",
"j.	c #90142C",
"k.	c #892E3B",
"l.	c #B4989A",
"m.	c #D5D2D2",
"n.	c #C3A7A9",
"o.	c #BB787E",
"p.	c #B21938",
"q.	c #B51937",
"r.	c #B41A39",
"s.	c #AD1A37",
"t.	c #A41B35",
"u.	c #A03645",
"v.	c #964651",
"w.	c #8B575E",
"x.	c #7E6369",
"y.	c #8C3F4A",
"z.	c #8A585F",
"A.	c #7E7375",
"B.	c #826C6E",
"C.	c #863B43",
"D.	c #8E122A",
"E.	c #92142C",
"F.	c #82363F",
"G.	c #6E6E6D",
"H.	c #7C363F",
"I.	c #BAA5A6",
"J.	c #D5D2D3",
"K.	c #D9D9D9",
"L.	c #CAB8B9",
"M.	c #BB7D82",
"N.	c #B11D3A",
"O.	c #B31837",
"P.	c #B51A39",
"Q.	c #B41A3A",
"R.	c #B31A39",
"S.	c #B11938",
"T.	c #A41733",
"U.	c #93142C",
"V.	c #8A152B",
"W.	c #92132B",
"X.	c #91132B",
"Y.	c #8D132B",
"Z.	c #644C4D",
"`.	c #707571",
" +	c #ACAEAC",
".+	c #BBA3A5",
"++	c #AB4854",
"@+	c #B01736",
"#+	c #B21838",
"$+	c #A71834",
"%+	c #B51837",
"&+	c #B41938",
"*+	c #B31938",
"=+	c #AF1736",
"-+	c #A11531",
";+	c #90142B",
">+	c #842B36",
",+	c #654244",
"'+	c #363435",
")+	c #646464",
"!+	c #C3C4C4",
"~+	c #A7846E",
"{+	c #73555A",
"]+	c #78535B",
"^+	c #7B4852",
"/+	c #85545A",
"(+	c #874C51",
"_+	c #8E3B45",
":+	c #952738",
"<+	c #9B1832",
"[+	c #9F1631",
"}+	c #AC1735",
"|+	c #B41937",
"1+	c #A51834",
"2+	c #A91734",
"3+	c #9F1531",
"4+	c #8E132A",
"5+	c #A11630",
"6+	c #91172E",
"7+	c #93142D",
"8+	c #8D182D",
"9+	c #83313A",
"0+	c #766462",
"a+	c #787D79",
"b+	c #919592",
"c+	c #B6B7B6",
"d+	c #D6D6D6",
"e+	c #AE9A7F",
"f+	c #736560",
"g+	c #60686E",
"h+	c #66717B",
"i+	c #7A6C6F",
"j+	c #848282",
"k+	c #7E7C7E",
"l+	c #868483",
"m+	c #7E6265",
"n+	c #735960",
"o+	c #795157",
"p+	c #77474E",
"q+	c #8E1D2B",
"r+	c #8E162B",
"s+	c #8F142B",
"t+	c #92132C",
"u+	c #735F61",
"v+	c #535353",
"w+	c #81172B",
"x+	c #8C2234",
"y+	c #80373E",
"z+	c #756665",
"A+	c #787E7A",
"B+	c #8C908D",
"C+	c #BFC0BF",
"D+	c #A09087",
"E+	c #94726E",
"F+	c #9B7C7F",
"G+	c #89686D",
"H+	c #83686B",
"I+	c #83807E",
"J+	c #82807F",
"K+	c #81807E",
"L+	c #826B6D",
"M+	c #64656D",
"N+	c #61696F",
"O+	c #6A7780",
"P+	c #947028",
"Q+	c #92492A",
"R+	c #7C343D",
"S+	c #7B7B7B",
"T+	c #6A6A6A",
"U+	c #683E40",
"V+	c #736A68",
"W+	c #797F7B",
"X+	c #8D918E",
"Y+	c #BCBEBD",
"Z+	c #BDBDBC",
"`+	c #A2A0A0",
" @	c #999898",
".@	c #919190",
"+@	c #999596",
"@@	c #938C93",
"#@	c #958C90",
"$@	c #9B9193",
"%@	c #938283",
"&@	c #967579",
"*@	c #96767A",
"=@	c #8B6C71",
"-@	c #926F30",
";@	c #945728",
">@	c #8E162D",
",@	c #891B29",
"'@	c #66393D",
")@	c #797979",
"!@	c #616161",
"~@	c #6A716D",
"{@	c #898D8A",
"]@	c #B8BAB8",
"^@	c #7C7D7B",
"/@	c #858787",
"(@	c #2E567B",
"_@	c #2B577E",
":@	c #5C7085",
"<@	c #939290",
"[@	c #9A9998",
"}@	c #979494",
"|@	c #969293",
"1@	c #8F8584",
"2@	c #948485",
"3@	c #957475",
"4@	c #752829",
"5@	c #3B2B2B",
"6@	c #565655",
"7@	c #515151",
"8@	c #B2B4B2",
"9@	c #D7D7D7",
"0@	c #C2C4C3",
"a@	c #B3B5B3",
"b@	c #9DA19F",
"c@	c #7B8382",
"d@	c #687479",
"e@	c #667279",
"f@	c #747875",
"g@	c #787A77",
"h@	c #828382",
"i@	c #888887",
"j@	c #908F8E",
"k@	c #969595",
"l@	c #848382",
"m@	c #747A76",
"n@	c #6A6D6A",
"o@	c #999A99",
"p@	c #CECECE",
"q@	c #CDCECD",
"r@	c #9D9F9E",
"s@	c #B4B6B4",
"t@	c #ABADAB",
"u@	c #A4A7A4",
"v@	c #919693",
"w@	c #7F847F",
"x@	c #79807B",
"y@	c #8A8E8B",
"z@	c #B4B6B5",
"A@	c #B3B4B4",
"                                                                ",
"                                                                ",
"                    .                                           ",
"      +                               +                         ",
"                                                                ",
"                                          .   @                 ",
"                                              @                 ",
"                            #                 #                 ",
"                                                                ",
"                                                                ",
"          # #                         $ % & * = - ; > #         ",
"                                , ' ) ! ~ { ] ^ / ( _ : < [     ",
"                      } | 1 2 3 4 5 6 7 7 8 7 9 0 a b c d e     ",
"                    f g h i j k l m n o p q r s t u v w x y z   ",
"                    A B C D E F G H I J K L M N O P Q R x S T U ",
"                  V W X Y Z ` x x x w  ...+.@.#.x $.%.&.*.=.-.;.",
"            >.,.'.).!.~.w x x x O x x {.].^./.(._.:.<.[.}.|.1.2.",
"              3.4.5.6.7.8.9.0.a.b.x O c.d.e.f.g.h.}.i.j.k.1.|.l.",
"        m.n.o.p.4 5 q.q.r.s.t.u.v.w.x.y.z.A.B.C.D.E.E.F.G.H.I.J.",
"  K.L.M.N.O.7 7 7 7 7 7 7 7 P.Q.R.S.T.U.V.i.W.E.X.|.Y.Z.G.`. +K.",
".+++@+#+$+5 8 7 7 7 8 %+&+&+*+=+-+|.Y.;+}.E.E.|.D.>+,+'+)+!+    ",
"~+{+]+^+/+(+_+:+<+[+}+|+1+2+3+4+|.5+6+7+8+}.i.9+0+a+b+c+d+      ",
"e+f+g+h+i+j+k+l+m+n+o+p+q+r+s+t+Y.u+v+w+x+y+z+A+B+C+            ",
"D+E+F+G+H+I+J+K+L+M+N+O+P+Q+E.1.R+S+T+U+V+W+X+Y+                ",
"Z+`+ @.@+@@@#@$@%@&@*@=@-@;@>@,@'@)@!@~@{@]@K.                  ",
"    > ^@/@(@_@:@<@[@}@|@1@2@3@4@5@6@7@8@9@                      ",
"    0@a@b@c@d@e@f@g@h@i@j@k@l@m@n@o@p@                          ",
"            q@r@s@t@u@v@w@x@y@z@A@                  +           ",
"                                                                ",
"                                                                ",
"                                                                ",
"                                                                "};
