/* XPM */
static char * P_xpm[] = {
"32 32 192 2",
"  	c #B27666",
". 	c #E5AA88",
"+ 	c #D89E7D",
"@ 	c #E0A685",
"# 	c #E7AD8B",
"$ 	c #C98E74",
"% 	c #BB7E6C",
"& 	c #DBA07F",
"* 	c #D69C7C",
"= 	c #DBA081",
"- 	c #DDA382",
"; 	c #AE7264",
"> 	c #B67A68",
", 	c #A96E63",
"' 	c #DCA17F",
") 	c #D69B7B",
"! 	c #E3A886",
"~ 	c #DA9F80",
"{ 	c #B47867",
"] 	c #DFA582",
"^ 	c #E5AA87",
"/ 	c #BC816D",
"( 	c #D59B7E",
"_ 	c #DFA584",
": 	c #E3A988",
"< 	c #000000",
"[ 	c #DDBEB0",
"} 	c #E1A683",
"| 	c #DC9F7F",
"1 	c #C68B72",
"2 	c #E9E6E4",
"3 	c #AD741C",
"4 	c #C77F11",
"5 	c #A36913",
"6 	c #D29679",
"7 	c #9D9B98",
"8 	c #CC8211",
"9 	c #A97523",
"0 	c #D3D3D3",
"a 	c #CE8947",
"b 	c #BF7A13",
"c 	c #AC7523",
"d 	c #C1856E",
"e 	c #A76C14",
"f 	c #925D0D",
"g 	c #89580C",
"h 	c #B4B4B4",
"i 	c #DCDCDC",
"j 	c #C98118",
"k 	c #E59B62",
"l 	c #F2A88C",
"m 	c #ECA278",
"n 	c #D28A39",
"o 	c #836333",
"p 	c #9C630E",
"q 	c #82530B",
"r 	c #9C640D",
"s 	c #8A5A13",
"t 	c #BB7710",
"u 	c #CE851A",
"v 	c #E49A5D",
"w 	c #F4AA93",
"x 	c #F7AD9D",
"y 	c #F6AC9B",
"z 	c #EAA071",
"A 	c #A46D1C",
"B 	c #B17668",
"C 	c #96600D",
"D 	c #A96C0E",
"E 	c #C07A10",
"F 	c #B57616",
"G 	c #D58B2F",
"H 	c #F3A990",
"I 	c #F5AB97",
"J 	c #B97A2F",
"K 	c #986415",
"L 	c #B7750F",
"M 	c #D88E39",
"N 	c #BC7D39",
"O 	c #E5E4E4",
"P 	c #A77221",
"Q 	c #C88011",
"R 	c #E89E6D",
"S 	c #AB9B83",
"T 	c #A68B62",
"U 	c #EBA178",
"V 	c #E69C67",
"W 	c #FFFFFF",
"X 	c #C2C2C2",
"Y 	c #837562",
"Z 	c #D0861D",
"` 	c #BEBDBC",
" .	c #F0F0F0",
"..	c #846E4E",
"+.	c #F1A787",
"@.	c #9F6D34",
"#.	c #AFABA5",
"$.	c #EAEAE9",
"%.	c #BBB9B5",
"&.	c #D28825",
"*.	c #D18C4A",
"=.	c #7E694C",
"-.	c #CCCCCC",
";.	c #B3B0AA",
">.	c #F6F6F6",
",.	c #796950",
"'.	c #D18721",
").	c #D3892A",
"!.	c #98661B",
"~.	c #DAA890",
"{.	c #6E470A",
"].	c #EEEEEE",
"^.	c #CBCAC8",
"/.	c #AD6E0F",
"(.	c #C4A29B",
"_.	c #9F9F9F",
":.	c #1D1304",
"<.	c #BB7810",
"[.	c #BF7C16",
"}.	c #A4680E",
"|.	c #C37C10",
"1.	c #B8750F",
"2.	c #C57F15",
"3.	c #7E5B24",
"4.	c #A0670F",
"5.	c #19140B",
"6.	c #9E6611",
"7.	c #A96C11",
"8.	c #705C32",
"9.	c #75643F",
"0.	c #72531E",
"a.	c #B5730F",
"b.	c #623F09",
"c.	c #DADADA",
"d.	c #776135",
"e.	c #D5B56C",
"f.	c #7E683C",
"g.	c #F5D07D",
"h.	c #FAD57F",
"i.	c #A9A9A9",
"j.	c #755F32",
"k.	c #CBAC67",
"l.	c #9B834E",
"m.	c #CDAF68",
"n.	c #B99E5E",
"o.	c #755118",
"p.	c #9A620D",
"q.	c #8E8982",
"r.	c #52370F",
"s.	c #826733",
"t.	c #3C331F",
"u.	c #18150D",
"v.	c #040404",
"w.	c #13100A",
"x.	c #1E1A10",
"y.	c #73623A",
"z.	c #84642C",
"A.	c #A59D90",
"B.	c #B4995C",
"C.	c #221D12",
"D.	c #050202",
"E.	c #6C2013",
"F.	c #B49255",
"G.	c #856226",
"H.	c #CCC4B9",
"I.	c #DEB8A5",
"J.	c #CBA79E",
"K.	c #9F8751",
"L.	c #330302",
"M.	c #600302",
"N.	c #7C0302",
"O.	c #CB0805",
"P.	c #C78751",
"Q.	c #CBC3B6",
"R.	c #AF9760",
"S.	c #695332",
"T.	c #9D0403",
"U.	c #800302",
"V.	c #9F150D",
"W.	c #A94C2E",
"X.	c #9E8556",
"Y.	c #B04F2F",
"Z.	c #B36F42",
"`.	c #877454",
" +	c #8C7554",
".+	c #A4926E",
"++	c #CD9276",
"@+	c #CE9378",
"#+	c #E9AF8B",
"$+	c #AF7768",
"%+	c #D69E81",
"&+	c #DDA588",
"  . + @ + @ # $ % & * = = + + - ; > > > > > > , $ ' @ & = ) @ ) ",
"  ! * - ~ - @ $ % & + = = + + = { ] - ^ - - ! / $ - = = = ( @ ) ",
"  @ ( - = = - $ % - = & + ( + =   - + ! + = _ / $ - = = = = & ( ",
"  @ + : ~ & - $ < ' = = + ( [ ~   = + - - = } / $ - & + & - = ( ",
"  @ ) = | * & 1 % ' = = < < < < > = - = = @ @ / 1 + + 2 < < ~ ( ",
"  @ ) = = * + 1 / - - < 3 4 5 < > - : - 6 - ' / $ 7 < < < < < + ",
"  @ ) = = * & 1 % - < < 4 8 4 9 < = & - * ] ' 0 < < < a b c < d ",
"  @ ) = _ ~ - 1 / - < e 4 f f g < h h h h i < < < j k l m n o < ",
"  } * = _ & - 1 / - < p q r r r s < < < < < < t u v w x y z A < ",
"B ' = + _ & - 1 / < < C D E E E E E E E E F 4 8 G H x x x I J < ",
"B & = = = - - $ < < K L 8 8 8 8 8 8 8 8 8 8 8 8 M x I x x x N < ",
"B & = = ~ = - O < P Q < < < 8 8 Q < < < 8 8 8 8 M y R x x x N < ",
"B ' = = ~ = - < g 8 t < S T < 8 < < S < < 8 8 8 G U V x x x N < ",
"B ' = + = = < < 8 8 < < W X < < < i W Y < 8 8 8 Z V l x x x N < ",
"B & - ) = + < f 8 < < W W < < < ` W  ...< 8 8 8 8 k I x x +.@.< ",
"B & - ) - = < f 8 < #.W $.< Q < i W %.< < 8 8 8 8 &.R m m *.=.< ",
"B ' = * ' ~ < f 8 < -.W ;.< 8 <  .>.,.< 8 8 Q Q 8 8 '.).).!.< < ",
"B ' ( ~.& - < < 8 {.< ].< < 8 < < ^.< < 8 b /.t 8 8 8 8 8 < < ( ",
"(.' < _.< _ - < 8 {.< < < 8 8 :.< < < b <.< < < E Q 8 8 [.< @ ( ",
"< 2 * = & < < < 4 < < < < 8 Q < < < 4 < < }.4 |.< 1.8 2.< < @ ( ",
"B < < < ^.0 3.< < 4.5.6.Q Q 7.8.9.0.< t a.< < b.a.Q < < < & @ ( ",
"B } + c.< < < t < d.e.f.< < < g.h.< q < < /.b Q Q < < @ + & @ ( ",
"  # & * * i.< < < j.k.l.< < < m.n.o.p.E 4 4 < < < < + @ + & @ ( ",
"  @ + * * @ q.r.}.s.t.u.v.v.w.x.y.z.t 8 < < < A.1 + & = _ & @ ( ",
"B ' * * ) @ - q.< < B.C.< < < D.E.F.G.< < H.I.J.$ - ] ~ _ @ = ( ",
"B ' * * * @ - 1 X < n.K.< L.M.N.O.P.< < Q.! } / $ - ] ~ _ @ = ( ",
"B ' = = _ & - 1 % < < R.S.T.U.V.W.< < ) - : # % $ - ] ~ - @ = ( ",
"  ^ ] + . + + 1 / ' 2 < X.Y.O.Z.`.< - = ~ = @ / 1 - = ( * - = ( ",
"B ! ) ~ . + + 1 / & * < <  +Y..+< < - = * + : / 1 - = * * - - ( ",
"B ^ + ! # ! - $ / & * = < < < < < - - = - * # / 1 + * & & = = ( ",
"; ++$ @+++++$ % / & * & & + + =   @ ] ] # ~ #+/ 1 + * - & - = ( ",
", / / / / / / $+/ = * = = %+%+=   ++++++@+++6 > 1 %+%+. = %+&+( "};
