/* XPM */
static char *d32438633ed4433e83aeb12ccbbaba6bWT0rPDz90Ms4osPW[] = {
/* columns rows colors chars-per-pixel */
"35 35 154 2 ",
"   c black",
".  c #050202",
"X  c #040404",
"o  c #1D1304",
"O  c #13100A",
"+  c #19140B",
"@  c #18150D",
"#  c #1E1A10",
"$  c #330302",
"%  c #221D12",
"&  c #3C331F",
"*  c #600302",
"=  c #7C0302",
"-  c #52370F",
";  c #623F09",
":  c #6C2013",
">  c #6E470A",
",  c #755118",
"<  c #72531E",
"1  c #7E5B24",
"2  c #695332",
"3  c #705C32",
"4  c #755F32",
"5  c #776135",
"6  c #73623A",
"7  c #75643F",
"8  c #7E683C",
"9  c #7E694C",
"0  c #796950",
"q  c #800302",
"w  c #9D0403",
"e  c #9F150D",
"r  c #CB0805",
"t  c #82530B",
"y  c #89580C",
"u  c #925D0D",
"i  c #8A5A13",
"p  c #96600D",
"a  c #9A620D",
"s  c #9C630E",
"d  c #9C640D",
"f  c #9E6611",
"g  c #986415",
"h  c #98661B",
"j  c #A0670F",
"k  c #A4680E",
"l  c #A96C0E",
"z  c #AD6E0F",
"x  c #B5730F",
"c  c #B7750F",
"v  c #B8750F",
"b  c #A36913",
"n  c #A76C14",
"m  c #A96C11",
"M  c #A46D1C",
"N  c #AD741C",
"B  c #B57616",
"V  c #BB7710",
"C  c #BB7810",
"Z  c #BF7A13",
"A  c #BF7C16",
"S  c #A94C2E",
"D  c #B04F2F",
"F  c #856226",
"G  c #84642C",
"H  c #836333",
"J  c #826733",
"K  c #9F6D34",
"L  c #A77221",
"P  c #A97523",
"I  c #AC7523",
"U  c #B97A2F",
"Y  c #BC7D39",
"T  c #C07A10",
"R  c #C37C10",
"E  c #C77F11",
"W  c #C57F15",
"Q  c #846E4E",
"!  c #877454",
"~  c #8C7554",
"^  c #B36F42",
"/  c #837562",
"(  c #C88011",
")  c #CC8211",
"_  c #C98118",
"`  c #CE851A",
"'  c #D0861D",
"]  c #D18721",
"[  c #D28825",
"{  c #D3892A",
"}  c #D58B2F",
"|  c #D28A39",
" . c #D88E39",
".. c #9B834E",
"X. c #9F8751",
"o. c #9E8556",
"O. c #B49255",
"+. c #B4995C",
"@. c #B99E5E",
"#. c #A68B62",
"$. c #AF9760",
"%. c #A4926E",
"&. c #CE8947",
"*. c #D18C4A",
"=. c #C78751",
"-. c #E49A5D",
";. c #E59B62",
":. c #E69C67",
">. c #E89E6D",
",. c #CBAC67",
"<. c #CDAF68",
"1. c #D5B56C",
"2. c #EAA071",
"3. c #EBA178",
"4. c #ECA278",
"5. c #F5D07D",
"6. c #FAD57F",
"7. c #8E8982",
"8. c #9D9B98",
"9. c #9F9F9F",
"0. c #AB9B83",
"q. c #A59D90",
"w. c #AFABA5",
"e. c #A9A9A9",
"r. c #B3B0AA",
"t. c #B4B4B4",
"y. c #BBB9B5",
"u. c #BEBDBC",
"i. c #F1A787",
"p. c #F2A88C",
"a. c #F3A990",
"s. c #F4AA93",
"d. c #F5AB97",
"f. c #F6AC9B",
"g. c #F7AD9D",
"h. c #CBC3B6",
"j. c #CCC4B9",
"k. c gray76",
"l. c #CBCAC8",
"z. c gray80",
"x. c LightGray",
"c. c gray83",
"v. c #DADADA",
"b. c gainsboro",
"n. c #E1DFDB",
"m. c gray89",
"M. c #E5E4E4",
"N. c #EAEAE9",
"B. c #EEEEEE",
"V. c gray94",
"C. c #F7F5F2",
"Z. c #F6F6F6",
"A. c #F8F8F8",
"S. c white",
/* pixels */
"S.S.S.S.S.S.S.S.S.S.S.  S.S.S.A.x.M.S.S.S.S.S.S.S.S.S.S.S.S.S.S.S.S.S.",
"S.S.S.S.S.S.S.S.S.S.S.S.S.S.A.        S.S.S.S.S.S.S.S.S.S.V.N.    S.S.",
"S.S.S.S.S.S.S.S.S.S.S.S.S.S.  N E b   S.S.S.S.S.S.S.S.A.8.          S.",
"S.S.S.S.S.S.S.S.S.S.S.S.S.    E ) E P   S.S.S.S.S.S.x.      &.Z I   S.",
"S.S.S.S.S.S.S.S.S.S.S.S.S.  n E u u y   t.t.t.t.b.      _ ;.p.4.| H   ",
"S.S.S.S.S.S.S.S.S.S.S.S.S.  s t d d d i             V ` -.s.g.f.2.M   ",
"S.S.S.S.S.S.S.S.S.S.S.S.    p l T T T T T T T T B E ) } a.g.g.g.d.U   ",
"S.S.S.S.S.S.S.S.S.S.S.    g c ) ) ) ) ) ) ) ) ) ) ) )  .g.d.g.g.g.Y   ",
"S.S.S.S.S.S.S.S.S.S.M.  L (       ) ) (       ) ) ) )  .f.>.g.g.g.Y   ",
"S.S.S.S.S.S.S.S.S.V.  y ) V   0.#.  )     0.    ) ) ) } 3.:.g.g.g.Y   ",
"S.S.S.S.S.S.S.S.S.    ) )     S.k.      b.S./   ) ) ) ' :.p.g.g.g.Y   ",
"S.S.S.S.S.S.S.S.S.  u )     S.S.      u.S.V.Q   ) ) ) ) ;.d.g.g.i.K   ",
"S.S.S.S.S.S.S.S.S.  u )   w.S.N.  (   b.S.y.    ) ) ) ) [ >.4.4.*.9   ",
"S.S.S.S.S.S.A.S.S.  u )   z.S.r.  )   V.Z.0   ) ) ( ( ) ) ] { { h     ",
"S.S.S.S.S.Z.x.m.S.    ) >   B.    )     l.    ) Z z V ) ) ) ) )     S.",
"S.S.S.B.S.  9.  M.B.  ) >       ) ) o       Z C       T ( ) ) A   S.S.",
"S.S.S.  N.Z.Z.A.      E         ) (       E     k E R   v ) W     S.S.",
"S.S.S.V.      l.x.1     j + f ( ( m 3 7 <   V x     ; x (       S.S.S.",
"S.S.S.S.A.Z.v.      V   5 1.8       5.6.  t     z Z ( (     N.S.S.S.S.",
"S.S.S.S.S.S.S.Z.e.      4 ,...      <.@., a T E E         n.S.S.S.S.S.",
"S.S.S.S.S.S.S.S.Z.7.- k J & @ X X O # 6 G V )       q.n.C.S.S.S.S.S.S.",
"S.S.S.S.S.S.S.S.S.N.7.    +.%       . : O.F     j.B.B.S.S.S.S.S.S.S.S.",
"S.S.S.S.S.S.S.S.S.S.M.k.  @.X.  $ * = r =.    h.Z.S.S.S.S.S.S.S.S.S.S.",
"S.S.S.S.S.S.S.S.S.S.S.S.    $.2 w q e S     c.Z.S.S.S.S.S.S.S.S.S.S.S.",
"S.S.S.S.S.S.S.S.S.S.S.S.S.N.  o.D r ^ !   m.S.S.S.S.S.S.S.S.S.S.S.S.S.",
"S.S.S.S.S.S.S.S.S.S.S.S.S.S.    ~ D %.    S.S.S.S.S.S.S.S.S.S.S.S.S.S.",
"S.S.S.S.S.S.S.S.S.S.S.S.S.S.S.          S.S.S.S.S.S.S.S.S.S.S.S.S.S.S.",
"S.S.S.S.S.S.S.S.S.S.S.S.S.S.S.S.S.S.S.S.S.S.S.S.S.S.S.S.S.S.S.S.S.S.S.",
"S.S.S.S.S.S.S.S.S.S.S.S.S.S.S.S.S.S.S.S.S.S.S.S.S.S.S.S.S.S.S.S.S.S.S.",
"S.S.S.S.S.S.S.S.S.S.S.S.S.S.S.S.S.S.S.S.S.S.S.S.S.S.S.S.S.S.S.S.S.S.S.",
"S.S.S.S.S.S.S.S.S.S.S.S.S.S.S.S.S.S.S.S.S.S.S.S.S.S.S.S.S.S.S.S.S.S.S.",
"S.S.S.S.S.S.S.S.S.S.S.S.S.S.S.S.S.S.S.S.S.S.S.S.S.S.S.S.S.S.S.S.S.S.S.",
"S.S.S.S.S.S.S.S.S.S.S.S.S.S.S.S.S.S.S.S.S.S.S.S.S.S.S.S.S.S.S.S.S.S.S.",
"S.S.S.S.S.S.S.S.S.S.S.S.S.S.S.S.S.S.S.S.S.S.S.S.S.S.S.S.S.S.S.S.S.S.S.",
"S.S.S.S.S.S.S.S.S.S.S.S.S.S.S.S.S.S.S.S.S.S.S.S.S.S.S.S.S.S.S.S.S.S.S."
};
