/* XPM */
static char * P1_xpm[] = {
"32 32 19 1",
" 	c #DADADA",
".	c #A03808",
"+	c #884C23",
"@	c #B06040",
"#	c #BEBEBE",
"$	c #9090A0",
"%	c #FFD0B5",
"&	c #C0C0E0",
"*	c #A3A3A3",
"=	c #FCFFFC",
"-	c #D4D4D4",
";	c #999999",
">	c #40402F",
",	c #007300",
"'	c #FFCB42",
")	c #CDCDCD",
"!	c #ADADAD",
"~	c #B6B6B6",
"{	c #50200F",
"                 ...            ",
"                +.@@@           ",
"          #    $$%%%%&          ",
"   *          %%%%=%%%%         ",
"              %%%%%%%%%%        ",
"              %%%%%%%%%%        ",
"             $%%%%%%%%%%        ",
"            &%%%%%%%%%%%        ",
"           ===%%%%%%%%%%        ",
"          =====%%%%%%%%%        ",
"     --  =====&=%%%%%%%&        ",
"        &====&===%%%%%%&    %%% ",
"        &===%=&===%%%%==%%%%%%% ",
"       &=%%%%%%%%&==&===&%%%%$% ",
"        %%%%%%%%%%%======%%%%%% ",
"        %%%%%%%%%%%=======%%    ",
"      ;&=%%%%%%%%%========&     ",
"       &==%%%%%%%%====&===&     ",
"        ==================&     ",
"        ==================&     ",
"        $&===============&      ",
"        >,,>&&&====&%%&$>       ",
"         ,,,,,,>>>>+''>,,       ",
"        >,,,,,,,,,,,,,,,>       ",
"        ,,,,,,,,,,,,,,,,        ",
"      # ,,,,,,,,,,,,,,,,,       ",
"       ),,,,,,,> >,,,,,,,       ",
"       !,,,,,,,-~>,,,,,>> *     ",
"       >>++++>,  >,,,>++++      ",
"       >++++++>   ,>++++++      ",
"       {+++++++   {+++++{       ",
"         +++++                  "};
